<?xml version="1.0" encoding="UTF-8" standalone="no"?>
<!-- Uploaded to: SVG Repo, www.svgrepo.com, Generator: SVG Repo Mixer Tools -->

<svg
   width="800px"
   height="800px"
   viewBox="0 0 24 24"
   fill="none"
   version="1.1"
   id="svg12424"
   sodipodi:docname="user-cicrle-svgrepo-com.svg"
   inkscape:version="1.2.1 (9c6d41e410, 2022-07-14)"
   xmlns:inkscape="http://www.inkscape.org/namespaces/inkscape"
   xmlns:sodipodi="http://sodipodi.sourceforge.net/DTD/sodipodi-0.dtd"
   xmlns="http://www.w3.org/2000/svg"
   xmlns:svg="http://www.w3.org/2000/svg">
  <defs
     id="defs12428" />
  <sodipodi:namedview
     id="namedview12426"
     pagecolor="#505050"
     bordercolor="#eeeeee"
     borderopacity="1"
     inkscape:showpageshadow="0"
     inkscape:pageopacity="0"
     inkscape:pagecheckerboard="0"
     inkscape:deskcolor="#505050"
     showgrid="false"
     inkscape:zoom="0.65625"
     inkscape:cx="403.04762"
     inkscape:cy="400.7619"
     inkscape:window-width="1366"
     inkscape:window-height="705"
     inkscape:window-x="-8"
     inkscape:window-y="-8"
     inkscape:window-maximized="1"
     inkscape:current-layer="svg12424" />
  <path
     d="m 2.4171432,11.991428 c 0,-5.3019304 4.2980702,-9.5999994 9.6000008,-9.5999994 5.301972,0 9.599999,4.298069 9.599999,9.5999994 0,5.301972 -4.298027,9.599999 -9.599999,9.599999 -5.3019306,0 -9.6000008,-4.298027 -9.6000008,-9.599999 z"
     fill="#2A4157"
     fill-opacity="0.24"
     id="path12418-2"
     style="fill:#000000;fill-opacity:1;stroke-width:1.06665;stroke-dasharray:none" />
  <path
     d="M3 12C3 7.02944 7.02944 3 12 3C16.9706 3 21 7.02944 21 12C21 16.9706 16.9706 21 12 21C7.02944 21 3 16.9706 3 12Z"
     fill="#2A4157"
     fill-opacity="0.24"
     id="path12418"
     style="fill:#ffffff;fill-opacity:1" />
  <circle
     cx="12"
     cy="10"
     r="4"
     fill="#222222"
     id="circle12420" />
  <path
     fill-rule="evenodd"
     clip-rule="evenodd"
     d="M18.2209 18.2462C18.2791 18.3426 18.2613 18.466 18.1795 18.5432C16.5674 20.0662 14.3928 21 12 21C9.60728 21 7.43264 20.0663 5.82057 18.5433C5.73877 18.466 5.72101 18.3427 5.77918 18.2463C6.94337 16.318 9.29215 15 12.0001 15C14.7079 15 17.0567 16.3179 18.2209 18.2462Z"
     fill="#222222"
     id="path12422" />
</svg>
